<svg width="24" height="24" viewBox="0 0 24 24" fill="none" xmlns="http://www.w3.org/2000/svg">
<path id="Vector" d="M16.3178 8.1414L15.0094 6.833C14.852 6.67567 14.6649 6.60247 14.4482 6.6134C14.2314 6.62434 14.0444 6.70847 13.887 6.8658C13.7297 7.02315 13.651 7.2102 13.651 7.42696C13.651 7.64373 13.7297 7.83078 13.887 7.98813L15.266 9.36712C15.565 9.6609 15.9143 9.80909 16.3138 9.81172C16.7134 9.81432 17.0626 9.66612 17.3616 9.36712L20.5853 6.11856C20.7426 5.96121 20.8213 5.77415 20.8213 5.55739C20.8213 5.34063 20.7426 5.15357 20.5853 4.99622C20.4279 4.8389 20.2422 4.76023 20.028 4.76023C19.8139 4.76023 19.6281 4.8389 19.4708 4.99622L16.3178 8.1414ZM1.49238 23.5009C1.07359 23.5009 0.720168 23.3569 0.432101 23.0688C0.144034 22.7807 0 22.4273 0 22.0085C0 21.5897 0.144034 21.2363 0.432101 20.9482C0.720168 20.6601 1.07359 20.5161 1.49238 20.5161H14.6122C15.031 20.5161 15.3844 20.6601 15.6725 20.9482C15.9605 21.2363 16.1046 21.5897 16.1046 22.0085C16.1046 22.4273 15.9605 22.7807 15.6725 23.0688C15.3844 23.3569 15.031 23.5009 14.6122 23.5009H1.49238ZM17.2361 14.0268C15.3637 14.0268 13.7683 13.3676 12.4499 12.0492C11.1315 10.7308 10.4723 9.13538 10.4723 7.26297C10.4723 5.39055 11.1315 3.79514 12.4499 2.47673C13.7683 1.15832 15.3637 0.499115 17.2361 0.499115C19.1086 0.499115 20.704 1.15832 22.0224 2.47673C23.3408 3.79514 24 5.39055 24 7.26297C24 9.13538 23.3408 10.7308 22.0224 12.0492C20.704 13.3676 19.1086 14.0268 17.2361 14.0268ZM1.49238 12.6913C1.07359 12.6913 0.720168 12.5473 0.432101 12.2592C0.144034 11.9711 0 11.6177 0 11.1989C0 10.7801 0.144034 10.4267 0.432101 10.1386C0.720168 9.85056 1.07359 9.70653 1.49238 9.70653H8.18706C8.34012 10.2556 8.52943 10.7788 8.75498 11.2763C8.98053 11.7737 9.25374 12.2454 9.57461 12.6913H1.49238ZM1.49238 18.0961C1.07359 18.0961 0.720168 17.9521 0.432101 17.664C0.144034 17.3759 0 17.0225 0 16.6037C0 16.1849 0.144034 15.8315 0.432101 15.5434C0.720168 15.2554 1.07359 15.1113 1.49238 15.1113H12.1287C12.7048 15.5011 13.3242 15.8208 13.9869 16.0704C14.6495 16.3199 15.3554 16.4858 16.1046 16.5681V16.6429C16.1046 17.0565 15.9605 17.4021 15.6725 17.6797C15.3844 17.9573 15.031 18.0961 14.6122 18.0961H1.49238Z" fill="black"/>
</svg>
