<svg width="20" height="22" viewBox="0 0 20 22" fill="none" xmlns="http://www.w3.org/2000/svg">
<path id="Vector" d="M0 19.4375V8.1875C0 7.79167 0.0885417 7.41667 0.265625 7.0625C0.442708 6.70833 0.6875 6.41667 1 6.1875L8.5 0.5625C8.9375 0.229167 9.4375 0.0625 10 0.0625C10.5625 0.0625 11.0625 0.229167 11.5 0.5625L19 6.1875C19.3125 6.41667 19.5573 6.70833 19.7344 7.0625C19.9115 7.41667 20 7.79167 20 8.1875V19.4375C20 20.125 19.7552 20.7135 19.2656 21.2031C18.776 21.6927 18.1875 21.9375 17.5 21.9375H13.75C13.3958 21.9375 13.099 21.8177 12.8594 21.5781C12.6198 21.3385 12.5 21.0417 12.5 20.6875V14.4375C12.5 14.0833 12.3802 13.7865 12.1406 13.5469C11.901 13.3073 11.6042 13.1875 11.25 13.1875H8.75C8.39583 13.1875 8.09896 13.3073 7.85938 13.5469C7.61979 13.7865 7.5 14.0833 7.5 14.4375V20.6875C7.5 21.0417 7.38021 21.3385 7.14062 21.5781C6.90104 21.8177 6.60417 21.9375 6.25 21.9375H2.5C1.8125 21.9375 1.22396 21.6927 0.734375 21.2031C0.244792 20.7135 0 20.125 0 19.4375Z" fill="#FFD700"/>
</svg>
